[Header]
FileType HTR
DataType HTRS
FileVersion 1
NumSegments 64
NumFrames 4
DataFrameRate 24
EulerRotationOrder ZYX
CalibrationUnits mm
RotationUnits Degrees
GlobalAxisofGravity Y
BoneLengthAxis Y
ScaleFactor 1.0
[SegmentNames&Hierarchy]
Hips	GLOBAL
Spine	Hips
Spine1	Spine
Spine2	Spine1
Neck	Spine2
Head	Neck
LeftEye	Head
RightEye	Head
LeftShoulder	Spine2
LeftArm	LeftShoulder
LeftForeArm	LeftArm
LeftHand	LeftForeArm
LeftHandThumb1	LeftHand
LeftHandThumb2	LeftHandThumb1
LeftHandThumb3	LeftHandThumb2
LeftHandThumb4	LeftHandThumb3
LeftHandIndex1	LeftHand
LeftHandIndex2	LeftHandIndex1
LeftHandIndex3	LeftHandIndex2
LeftHandIndex4	LeftHandIndex3
LeftHandMiddle1	LeftHand
LeftHandMiddle2	LeftHandMiddle1
LeftHandMiddle3	LeftHandMiddle2
LeftHandMiddle4	LeftHandMiddle3
LeftHandRing1	LeftHand
LeftHandRing2	LeftHandRing1
LeftHandRing3	LeftHandRing2
LeftHandRing4	LeftHandRing3
LeftHandPinky1	LeftHand
LeftHandPinky2	LeftHandPinky1
LeftHandPinky3	LeftHandPinky2
LeftHandPinky4	LeftHandPinky3
RightShoulder	Spine2
RightArm	RightShoulder
RightForeArm	RightArm
RightHand	RightForeArm
RightHandPinky1	RightHand
RightHandPinky2	RightHandPinky1
RightHandPinky3	RightHandPinky2
RightHandPinky4	RightHandPinky3
RightHandRing1	RightHand
RightHandRing2	RightHandRing1
RightHandRing3	RightHandRing2
RightHandRing4	RightHandRing3
RightHandMiddle1	RightHand
RightHandMiddle2	RightHandMiddle1
RightHandMiddle3	RightHandMiddle2
RightHandMiddle4	RightHandMiddle3
RightHandIndex1	RightHand
RightHandIndex2	RightHandIndex1
RightHandIndex3	RightHandIndex2
RightHandIndex4	RightHandIndex3
RightHandThumb1	RightHand
RightHandThumb2	RightHandThumb1
RightHandThumb3	RightHandThumb2
RightHandThumb4	RightHandThumb3
LeftUpLeg	Hips
LeftLeg	LeftUpLeg
LeftFoot	LeftLeg
LeftToeBase	LeftFoot
RightUpLeg	Hips
RightLeg	RightUpLeg
RightFoot	RightLeg
RightToeBase	RightFoot
[BasePosition]
Hips	0	0	0	0	0	0	1
Spine	0	0	0	0	0	0	1
Spine1	0	0	0	0	0	0	1
Spine2	0	0	0	0	0	0	1
Neck	0	0	0	0	0	0	1
Head	0	0	0	0	0	0	1
LeftEye	0	0	0	0	0	0	1
RightEye	0	0	0	0	0	0	1
LeftShoulder	0	0	0	0	0	0	1
LeftArm	0	0	0	0	0	0	1
LeftForeArm	0	0	0	0	0	0	1
LeftHand	0	0	0	0	0	0	1
LeftHandThumb1	0	0	0	0	0	0	1
LeftHandThumb2	0	0	0	0	0	0	1
LeftHandThumb3	0	0	0	0	0	0	1
LeftHandThumb4	0	0	0	0	0	0	1
LeftHandIndex1	0	0	0	0	0	0	1
LeftHandIndex2	0	0	0	0	0	0	1
LeftHandIndex3	0	0	0	0	0	0	1
LeftHandIndex4	0	0	0	0	0	0	1
LeftHandMiddle1	0	0	0	0	0	0	1
LeftHandMiddle2	0	0	0	0	0	0	1
LeftHandMiddle3	0	0	0	0	0	0	1
LeftHandMiddle4	0	0	0	0	0	0	1
LeftHandRing1	0	0	0	0	0	0	1
LeftHandRing2	0	0	0	0	0	0	1
LeftHandRing3	0	0	0	0	0	0	1
LeftHandRing4	0	0	0	0	0	0	1
LeftHandPinky1	0	0	0	0	0	0	1
LeftHandPinky2	0	0	0	0	0	0	1
LeftHandPinky3	0	0	0	0	0	0	1
LeftHandPinky4	0	0	0	0	0	0	1
RightShoulder	0	0	0	0	0	0	1
RightArm	0	0	0	0	0	0	1
RightForeArm	0	0	0	0	0	0	1
RightHand	0	0	0	0	0	0	1
RightHandPinky1	0	0	0	0	0	0	1
RightHandPinky2	0	0	0	0	0	0	1
RightHandPinky3	0	0	0	0	0	0	1
RightHandPinky4	0	0	0	0	0	0	1
RightHandRing1	0	0	0	0	0	0	1
RightHandRing2	0	0	0	0	0	0	1
RightHandRing3	0	0	0	0	0	0	1
RightHandRing4	0	0	0	0	0	0	1
RightHandMiddle1	0	0	0	0	0	0	1
RightHandMiddle2	0	0	0	0	0	0	1
RightHandMiddle3	0	0	0	0	0	0	1
RightHandMiddle4	0	0	0	0	0	0	1
RightHandIndex1	0	0	0	0	0	0	1
RightHandIndex2	0	0	0	0	0	0	1
RightHandIndex3	0	0	0	0	0	0	1
RightHandIndex4	0	0	0	0	0	0	1
RightHandThumb1	0	0	0	0	0	0	1
RightHandThumb2	0	0	0	0	0	0	1
RightHandThumb3	0	0	0	0	0	0	1
RightHandThumb4	0	0	0	0	0	0	1
LeftUpLeg	0	0	0	0	0	0	1
LeftLeg	0	0	0	0	0	0	1
LeftFoot	0	0	0	0	0	0	1
LeftToeBase	0	0	0	0	0	0	1
RightUpLeg	0	0	0	0	0	0	1
RightLeg	0	0	0	0	0	0	1
RightFoot	0	0	0	0	0	0	1
RightToeBase	0	0	0	0	0	0	1
[Hips]
72	-86.71865845	929.302124	-79.30472565	20.3626442	-50.40723801	-28.66376114	1.0
73	-90.81089783	961.737793	-54.82983017	15.83062363	-45.8461647	-21.24948692	1.0
74	-89.33087158	984.4522705	-21.56934738	10.69435406	-39.98939896	-14.76972961	1.0
75	-82.23644257	988.6422729	15.90899849	5.936997414	-32.53952789	-9.655070305	1.0
[Spine]
72	0	101.8159943	1.315000057	12.05512428	-11.16171741	-8.528054237	1.0
73	0	101.8159943	1.315000057	8.744810104	-12.16196728	-10.93037701	1.0
74	0	101.8159943	1.315000057	8.776721954	-14.80269909	-11.29507923	1.0
75	0	101.8159943	1.315000057	10.51992607	-18.35331345	-9.962594032	1.0
[Spine1]
72	0	100.8349991	-10.00800037	1.716679215	-2.025177479	7.048231602	1.0
73	0	100.8349991	-10.00800037	2.249501705	-2.083013535	5.591660976	1.0
74	0	100.8349991	-10.00800037	1.283531427	-2.261993647	2.304293394	1.0
75	0	100.8349991	-10.00800037	0.112985462	-2.608632326	-0.794891119	1.0
[Spine2]
72	0	91	-13.73399925	1.928693056	-1.891290307	7.029109001	1.0
73	0	91	-13.73399925	2.4368577	-1.986740351	5.546968937	1.0
74	0	91	-13.73399925	1.396335006	-2.211920261	2.286203146	1.0
75	0	91	-13.73399925	0.1275867373	-2.619221926	-0.757457912	1.0
[Neck]
72	0	166.7169952	-25.16200066	-8.180618286	7.140196323	1.938264728	1.0
73	0	166.7169952	-25.16200066	-7.887428761	6.723165035	2.885811806	1.0
74	0	166.7169952	-25.16200066	-5.735762119	6.173322201	5.490044594	1.0
75	0	166.7169952	-25.16200066	-3.729730368	5.864612579	6.112647057	1.0
[Head]
72	0	96.17900085	16.84999847	-19.11377335	36.97075272	0.6912072897	1.0
73	0	96.17900085	16.84999847	-17.5237999	35.47829819	-0.292760402	1.0
74	0	96.17900085	16.84999847	-14.10360241	35.10082626	-1.498597622	1.0
75	0	96.17900085	16.84999847	-10.87632275	35.0234375	-3.922518492	1.0
[LeftEye]
72	30.6760006	64.09500122	92.83599854	0	0	0	1.0
73	30.6760006	64.09500122	92.83599854	0	0	0	1.0
74	30.6760006	64.09500122	92.83599854	0	0	0	1.0
75	30.6760006	64.09500122	92.83599854	0	0	0	1.0
[RightEye]
72	-30.6760006	64.09500122	92.83499908	0	0	0	1.0
73	-30.6760006	64.09500122	92.83499908	0	0	0	1.0
74	-30.6760006	64.09500122	92.83499908	0	0	0	1.0
75	-30.6760006	64.09500122	92.83499908	0	0	0	1.0
[LeftShoulder]
72	45.70400238	109.4599991	-26.28000069	0.0396903418	-1.372119546	8.72524929	1.0
73	45.70400238	109.4599991	-26.28000069	0.335416913	-4.499834061	4.85478878	1.0
74	45.70400238	109.4599991	-26.28000069	0.4338606	-6.41841507	4.645927429	1.0
75	45.70400238	109.4599991	-26.28000069	0.9336498976	-6.224023342	-1.316981912	1.0
[LeftArm]
72	105.923996	-5.24600029	-22.32099915	-14.92591572	-0.6230164766	15.15705204	1.0
73	105.923996	-5.24600029	-22.32099915	14.75263977	-5.470133781	11.88286495	1.0
74	105.923996	-5.24600029	-22.32099915	39.22278976	-5.308515549	-3.555518627	1.0
75	105.923996	-5.24600029	-22.32099915	54.98531342	1.615970135	-13.56484509	1.0
[LeftForeArm]
72	278.414978	-0.0009999999311	0	2.963473207e-06	-32.00533295	-0.0002084020525	1.0
73	278.414978	-0.0009999999311	0	2.631132475e-06	-24.36915398	-0.000207344041	1.0
74	278.414978	-0.0009999999311	0	-1.493616821e-07	-18.13448906	-0.0002040135441	1.0
75	278.414978	-0.0009999999311	0	-7.849534995e-06	-19.22099304	-0.0001931045699	1.0
[LeftHand]
72	283.2879944	0	0	18.51390076	9.880187988	26.2473774	1.0
73	283.2879944	0	0	15.76311111	13.09957504	12.23450279	1.0
74	283.2879944	0	0	12.11348724	16.44263077	-2.315736294	1.0
75	283.2879944	0	0	8.418735504	18.01419067	-13.89610195	1.0
[LeftHandThumb1]
72	24.6609993	-15.75	26.8239994	-2.225718737	-4.77301836	-2.417209387	1.0
73	24.6609993	-15.75	26.8239994	-1.746299863	-5.952368259	-4.32175684	1.0
74	24.6609993	-15.75	26.8239994	-1.843316197	-7.132153511	-5.378124714	1.0
75	24.6609993	-15.75	26.8239994	-2.299981594	-8.118508339	-5.738060474	1.0
[LeftHandThumb2]
72	32.29800034	-18.64699936	18.64699936	1.212314725	-0.1855246723	-1.062347651	1.0
73	32.29800034	-18.64699936	18.64699936	1.213744998	-0.1834107786	-1.071955323	1.0
74	32.29800034	-18.64699936	18.64699936	1.213595152	-0.1830391884	-1.073007226	1.0
75	32.29800034	-18.64699936	18.64699936	1.211538076	-0.1855591536	-1.061485052	1.0
[LeftHandThumb3]
72	26.52600098	-15.31499958	15.31499958	-5.754603386	-6.365285873	4.245151997	1.0
73	26.52600098	-15.31499958	15.31499958	-5.64257431	-6.168591022	4.183808327	1.0
74	26.52600098	-15.31499958	15.31499958	-5.392560959	-5.809773445	4.088766098	1.0
75	26.52600098	-15.31499958	15.31499958	-5.003618717	-5.294702053	3.971360922	1.0
[LeftHandThumb4]
72	19.54599953	-11.28499985	11.28499985	0	0	0	1.0
73	19.54599953	-11.28499985	11.28499985	0	0	0	1.0
74	19.54599953	-11.28499985	11.28499985	0	0	0	1.0
75	19.54599953	-11.28499985	11.28499985	0	0	0	1.0
[LeftHandIndex1]
72	91.09299469	-5.170999527	22.60099792	-0.5693897009	-2.494201899	23.31224251	1.0
73	91.09299469	-5.170999527	22.60099792	-0.1070918515	-3.770155907	10.14634895	1.0
74	91.09299469	-5.170999527	22.60099792	-0.01266418584	-4.695170879	-5.10040617	1.0
75	91.09299469	-5.170999527	22.60099792	-0.3838162124	-4.914690018	-20.47609138	1.0
[LeftHandIndex2]
72	36.76399994	0	0	-2.000721906e-05	0.01499941386	-0.1247469634	1.0
73	36.76399994	0	0	-5.009522647e-05	0.02648704872	-0.2203270495	1.0
74	36.76399994	0	0	-5.516612146e-05	0.02681783214	-0.2231561542	1.0
75	36.76399994	0	0	-9.690617844e-06	0.01566582546	-0.1303043067	1.0
[LeftHandIndex3]
72	28.83100128	0	0	-0.02627726085	0.6012102962	-5.007372856	1.0
73	28.83100128	0	0	-0.03181462362	0.661254406	-5.509001732	1.0
74	28.83100128	0	0	-0.03727434576	0.7156735659	-5.963999271	1.0
75	28.83100128	0	0	-0.04196248204	0.7592746019	-6.328860283	1.0
[LeftHandIndex4]
72	23.92700005	0	0	0	0	0	1.0
73	23.92700005	0	0	0	0	0	1.0
74	23.92700005	0	0	0	0	0	1.0
75	23.92700005	0	0	0	0	0	1.0
[LeftHandMiddle1]
72	95.33399963	0	0	-0.1230588928	0.5918417573	10.81726551	1.0
73	95.33399963	0	0	-0.003498060163	0.08178665489	-0.5459225178	1.0
74	95.33399963	0	0	-0.1504078805	-0.3921135962	-11.84425354	1.0
75	95.33399963	0	0	-0.4968898296	-0.6046840549	-22.08296204	1.0
[LeftHandMiddle2]
72	36.98199844	0	0	-6.776663668e-06	-5.582477752e-05	-2.746884638e-05	1.0
73	36.98199844	0	0	-0.009047929198	0.3528321981	-2.936154842	1.0
74	36.98199844	0	0	-0.07139129192	0.9890757799	-8.256305695	1.0
75	36.98199844	0	0	-0.1830942631	1.577361584	-13.24118233	1.0
[LeftHandMiddle3]
72	29.50900078	0	0	-0.02575429529	0.5951549411	-4.956847191	1.0
73	29.50900078	0	0	-0.03576738387	0.7010464668	-5.841601372	1.0
74	29.50900078	0	0	-0.04615579173	0.7959405184	-6.635822773	1.0
75	29.50900078	0	0	-0.05553798378	0.872808516	-7.280051708	1.0
[LeftHandMiddle4]
72	28.3390007	0	0	0	0	0	1.0
73	28.3390007	0	0	0	0	0	1.0
74	28.3390007	0	0	0	0	0	1.0
75	28.3390007	0	0	0	0	0	1.0
[LeftHandRing1]
72	91.04499817	-0.4390000105	-18.65100098	0.005880879238	3.47258234	-0.3122445047	1.0
73	91.04499817	-0.4390000105	-18.65100098	-0.1635866463	3.366889	-12.55320072	1.0
74	91.04499817	-0.4390000105	-18.65100098	-0.5292354822	3.059302807	-22.52800179	1.0
75	91.04499817	-0.4390000105	-18.65100098	-0.918931365	2.712514639	-29.94836807	1.0
[LeftHandRing2]
72	31.54000092	0	0	-0.006859186571	0.3072595596	-2.55657959	1.0
73	31.54000092	0	0	-0.08415616304	1.073324919	-8.96538353	1.0
74	31.54000092	0	0	-0.2357408851	1.786307931	-15.03510189	1.0
75	31.54000092	0	0	-0.4310869277	2.39763689	-20.38217163	1.0
[LeftHandRing3]
72	29.37700081	0	0	-0.04103163257	0.7506628036	-6.2568326	1.0
73	29.37700081	0	0	-0.05060904846	0.8334572911	-6.950157166	1.0
74	29.37700081	0	0	-0.05898196995	0.899330318	-7.502490997	1.0
75	29.37700081	0	0	-0.06537198275	0.946734488	-7.900572777	1.0
[LeftHandRing4]
72	26.47500038	0	0	0	0	0	1.0
73	26.47500038	0	0	0	0	0	1.0
74	26.47500038	0	0	0	0	0	1.0
75	26.47500038	0	0	0	0	0	1.0
[LeftHandPinky1]
72	80.77799988	-4.887000084	-38.06099701	-0.0576380752	11.24330997	-11.71996689	1.0
73	80.77799988	-4.887000084	-38.06099701	-0.7753369808	9.361956596	-27.97213364	1.0
74	80.77799988	-4.887000084	-38.06099701	-1.552124739	6.943315029	-39.20464325	1.0
75	80.77799988	-4.887000084	-38.06099701	-2.075416327	4.65530777	-45.70404434	1.0
[LeftHandPinky2]
72	36	0	0	0.1138834953	-3.886837482	-1.893387914	1.0
73	36	0	0	0.3088336885	-3.513145685	-4.913725376	1.0
74	36	0	0	0.5378364325	-2.999036789	-8.943656921	1.0
75	36	0	0	0.7517391443	-2.401940584	-13.48152351	1.0
[LeftHandPinky3]
72	21.14200211	0	0	-0.02986186184	0.6406706572	-5.336859226	1.0
73	21.14200211	0	0	-0.03384806588	0.6821272969	-5.683444977	1.0
74	21.14200211	0	0	-0.03603226319	0.7035992742	-5.862957478	1.0
75	21.14200211	0	0	-0.03651313484	0.7083160281	-5.902428627	1.0
[LeftHandPinky4]
72	19.75699997	0	0	0	0	0	1.0
73	19.75699997	0	0	0	0	0	1.0
74	19.75699997	0	0	0	0	0	1.0
75	19.75699997	0	0	0	0	0	1.0
[RightShoulder]
72	-45.70000076	109.4620056	-26.28000069	-0.6957917809	-6.744755745	14.48273373	1.0
73	-45.70000076	109.4620056	-26.28000069	-0.5246939659	-7.013999939	7.275749207	1.0
74	-45.70000076	109.4620056	-26.28000069	-0.07688733935	-4.342284203	0.7930004597	1.0
75	-45.70000076	109.4620056	-26.28000069	0.05950229988	-0.02836950682	-7.697002411	1.0
[RightArm]
72	-105.9280014	-5.248000145	-22.32099915	-32.77134705	-10.03289223	22.70547104	1.0
73	-105.9280014	-5.248000145	-22.32099915	-25.72338104	-8.569689751	13.22216892	1.0
74	-105.9280014	-5.248000145	-22.32099915	-10.08384228	-9.663573265	-0.9463912845	1.0
75	-105.9280014	-5.248000145	-22.32099915	1.823099136	-9.47976017	-15.51556301	1.0
[RightForeArm]
72	-278.414978	0	0	-1.383225572e-05	82.52056122	-3.131473932e-05	1.0
73	-278.414978	0	0	-6.856279015e-06	82.78960419	-1.353981497e-05	1.0
74	-278.414978	0	0	1.961187809e-05	86.23966217	8.697366138e-05	1.0
75	-278.414978	0	0	-7.629394531e-05	93.77168274	-7.629407628e-05	1.0
[RightHand]
72	-283.2879944	0	0.0009999999311	30.20700264	-6.0721488	-16.54013824	1.0
73	-283.2879944	0	0.0009999999311	32.1689682	-19.17836761	-9.222230911	1.0
74	-283.2879944	0	0.0009999999311	31.09837914	-30.3118	1.55535996	1.0
75	-283.2879944	0	0.0009999999311	25.74058342	-33.78225327	13.86785698	1.0
[RightHandPinky1]
72	-80.76699829	-4.885000229	-38.06000137	-0.05121241882	-16.44364929	16.01465416	1.0
73	-80.76699829	-4.885000229	-38.06000137	-1.823007345	-19.21453667	44.35874939	1.0
74	-80.76699829	-4.885000229	-38.06000137	-3.629646063	-19.0390625	62.22986221	1.0
75	-80.76699829	-4.885000229	-38.06000137	-5.060007095	-17.1512928	74.60021973	1.0
[RightHandPinky2]
72	-36	0	0.0009999999311	-0.4679470956	-2.50708437	21.1550293	1.0
73	-36	0	0.0009999999311	-0.9740521312	-3.546880484	30.71656418	1.0
74	-36	0	0.0009999999311	-1.448470831	-4.243607521	37.69151688	1.0
75	-36	0	0.0009999999311	-1.903384566	-4.773288727	43.47384644	1.0
[RightHandPinky3]
72	-21.14200211	0	0	-0.0428121835	0.7705209255	-6.360682011	1.0
73	-21.14200211	0	0	-0.0347944051	0.69488132	-5.733962536	1.0
74	-21.14200211	0	0	-0.03286679462	0.6754337549	-5.572753429	1.0
75	-21.14200211	0	0	-0.03500203416	0.6968958974	-5.750667095	1.0
[RightHandPinky4]
72	-19.75699997	0	0	0	0	0	1.0
73	-19.75699997	0	0	0	0	0	1.0
74	-19.75699997	0	0	0	0	0	1.0
75	-19.75699997	0	0	0	0	0	1.0
[RightHandRing1]
72	-91.03599548	-0.4390000105	-18.65100098	0.02028176747	-5.153080463	1.992148161	1.0
73	-91.03599548	-0.4390000105	-18.65100098	-0.763333559	-7.883676052	27.43123817	1.0
74	-91.03599548	-0.4390000105	-18.65100098	-2.329320192	-9.034852982	48.41975021	1.0
75	-91.03599548	-0.4390000105	-18.65100098	-3.554024458	-8.630203247	60.84390259	1.0
[RightHandRing2]
72	-31.54000092	0	0	-0.01818757877	-0.5026521087	4.144220829	1.0
73	-31.54000092	0	0	-0.1082024574	-1.221949816	10.11997414	1.0
74	-31.54000092	0	0	-0.2526656985	-1.857297778	15.49306393	1.0
75	-31.54000092	0	0	-0.4159393311	-2.368277073	19.91881371	1.0
[RightHandRing3]
72	-29.37700081	0	0	0.9079491496	0.3429737687	-2.820960045	1.0
73	-29.37700081	0	0	1.863461494	0.1285515577	-1.058069825	1.0
74	-29.37700081	0	0	2.081591606	0.007470344193	-0.0618003197	1.0
75	-29.37700081	0	0	1.614573002	-0.03813580051	0.3139468729	1.0
[RightHandRing4]
72	-26.47500038	0	0	0	0	0	1.0
73	-26.47500038	0	0	0	0	0	1.0
74	-26.47500038	0	0	0	0	0	1.0
75	-26.47500038	0	0	0	0	0	1.0
[RightHandMiddle1]
72	-95.32500458	0	0	-0.06886100769	4.762052059	-8.734121323	1.0
73	-95.32500458	0	0	-0.2632450163	2.134600401	16.27046585	1.0
74	-95.32500458	0	0	-1.489748001	0.1673017889	38.41690826	1.0
75	-95.32500458	0	0	-2.918551683	-0.8085659146	54.74034119	1.0
[RightHandMiddle2]
72	-36.98199844	0	0	-0.007971460931	-0.3329392374	2.74361372	1.0
73	-36.98199844	0	0	-0.05162711442	-0.8458447456	6.985508919	1.0
74	-36.98199844	0	0	-0.1107074171	-1.235897303	10.23670769	1.0
75	-36.98199844	0	0	-0.1631470919	-1.49732542	12.43445873	1.0
[RightHandMiddle3]
72	-29.50900078	0	0	1.376025319	0.1027510613	-0.8612069488	1.0
73	-29.50900078	0	0	1.472088337	-0.1518638432	1.233855247	1.0
74	-29.50900078	0	0	0.934797883	-0.2455545515	2.006207705	1.0
75	-29.50900078	0	0	0.02551651374	-0.2207494229	1.802558064	1.0
[RightHandMiddle4]
72	-28.3390007	0	0.0009999999311	0	0	0	1.0
73	-28.3390007	0	0.0009999999311	0	0	0	1.0
74	-28.3390007	0	0.0009999999311	0	0	0	1.0
75	-28.3390007	0	0.0009999999311	0	0	0	1.0
[RightHandIndex1]
72	-91.08300018	-5.167999744	22.60099792	-0.1194134578	15.02204609	-16.55532455	1.0
73	-91.08300018	-5.167999744	22.60099792	0.06230926886	12.3150301	11.19777584	1.0
74	-91.08300018	-5.167999744	22.60099792	-0.9358811975	9.968502998	32.78921127	1.0
75	-91.08300018	-5.167999744	22.60099792	-2.82413888	7.628134727	54.76993179	1.0
[RightHandIndex2]
72	-36.76399994	0	0	-0.007419333793	-0.3211633563	2.646480083	1.0
73	-36.76399994	0	0	-0.01175080799	-0.4041675031	3.331256866	1.0
74	-36.76399994	0	0	-0.01046171319	-0.3813739717	3.143193722	1.0
75	-36.76399994	0	0	-0.0061785914	-0.2931215763	2.415310144	1.0
[RightHandIndex3]
72	-28.83100128	0	0	-9.234024765e-05	0.03584094346	-0.2952335477	1.0
73	-28.83100128	0	0	-0.0009237807244	-0.1134577617	0.934664011	1.0
74	-28.83100128	0	0	-0.0002941547718	-0.06479795277	0.5337542892	1.0
75	-28.83100128	0	0	-0.0008610057994	0.1093461215	-0.9007454515	1.0
[RightHandIndex4]
72	-23.92700005	0	0	0	0	0	1.0
73	-23.92700005	0	0	0	0	0	1.0
74	-23.92700005	0	0	0	0	0	1.0
75	-23.92700005	0	0	0	0	0	1.0
[RightHandThumb1]
72	-24.64799881	-15.72700024	26.82600021	3.763113976	-10.84377575	-6.866688728	1.0
73	-24.64799881	-15.72700024	26.82600021	5.418970108	-10.26767445	-3.873924255	1.0
74	-24.64799881	-15.72700024	26.82600021	6.577730656	-9.51701355	-2.171962738	1.0
75	-24.64799881	-15.72700024	26.82600021	7.365904331	-8.886569023	-0.6173615456	1.0
[RightHandThumb2]
72	-32.29800034	-18.64699936	18.64699936	4.250858307	-7.139992237	0.8990363479	1.0
73	-32.29800034	-18.64699936	18.64699936	7.01241827	-16.44472122	-0.6500756741	1.0
74	-32.29800034	-18.64699936	18.64699936	10.23458481	-25.86222458	-3.138026953	1.0
75	-32.29800034	-18.64699936	18.64699936	13.55316257	-33.85079193	-6.225643158	1.0
[RightHandThumb3]
72	-26.52600098	-15.31399918	15.31399918	-1.559599638	-1.881623745	-3.474880695	1.0
73	-26.52600098	-15.31399918	15.31399918	3.80179739	-10.87952614	-4.936505318	1.0
74	-26.52600098	-15.31399918	15.31399918	9.373698235	-17.86529541	-7.72968626	1.0
75	-26.52600098	-15.31399918	15.31399918	13.95757198	-21.57971764	-10.55853939	1.0
[RightHandThumb4]
72	-19.54599953	-11.28499985	11.28499985	0	0	0	1.0
73	-19.54599953	-11.28499985	11.28499985	0	0	0	1.0
74	-19.54599953	-11.28499985	11.28499985	0	0	0	1.0
75	-19.54599953	-11.28499985	11.28499985	0	0	0	1.0
[LeftUpLeg]
72	82.07800293	-67.51699829	-15.99599934	-23.59385109	18.12655449	30.8343811	1.0
73	82.07800293	-67.51699829	-15.99599934	-24.62306786	17.29527283	28.15035057	1.0
74	82.07800293	-67.51699829	-15.99599934	-24.34918785	22.00598526	19.4987011	1.0
75	82.07800293	-67.51699829	-15.99599934	-22.92667961	23.85331154	10.99502087	1.0
[LeftLeg]
72	0	-443.7049866	2.845999956	60.3475914	-11.24679852	-4.021667957	1.0
73	0	-443.7049866	2.845999956	54.02767563	2.688600779	-6.632555008	1.0
74	0	-443.7049866	2.845999956	46.86798859	9.500469208	-3.887337685	1.0
75	0	-443.7049866	2.845999956	41.42695999	7.052450657	-6.793177605	1.0
[LeftFoot]
72	0	-444.2789917	-29.8219986	-17.20464897	-12.90192795	-16.64604568	1.0
73	0	-444.2789917	-29.8219986	-15.96755791	-0.0162993446	-17.11824989	1.0
74	0	-444.2789917	-29.8219986	-14.14054108	8.486431122	-8.46937561	1.0
75	0	-444.2789917	-29.8219986	-14.98932171	18.43274117	0.612539947	1.0
[LeftToeBase]
72	0	-87.28699493	107.1060028	-11.39056396	0.6056193709	3.740368605	1.0
73	0	-87.28699493	107.1060028	-8.545179367	0.3237537742	2.638931513	1.0
74	0	-87.28699493	107.1060028	-5.675043106	0.1851147562	2.50706172	1.0
75	0	-87.28699493	107.1060028	-3.99535203	-0.02939574793	-0.4819923341	1.0
[RightUpLeg]
72	-82.07800293	-67.51699829	-15.99599934	-1.918828726	-0.9050468802	3.790085077	1.0
73	-82.07800293	-67.51699829	-15.99599934	-0.08243237436	-1.753186345	1.270518661	1.0
74	-82.07800293	-67.51699829	-15.99599934	1.933279037	-3.898839474	-2.432825089	1.0
75	-82.07800293	-67.51699829	-15.99599934	1.604005218	-2.944678307	-5.638720989	1.0
[RightLeg]
72	0	-443.7049866	2.861999989	34.50112534	-10.35641766	-4.191459179	1.0
73	0	-443.7049866	2.861999989	28.10963058	-8.839808464	-3.821995497	1.0
74	0	-443.7049866	2.861999989	26.46694756	-7.750743389	-5.061768055	1.0
75	0	-443.7049866	2.861999989	33.33196259	-5.819983482	-7.561082363	1.0
[RightFoot]
72	0	-444.2770081	-29.83799934	-23.52416229	0.976464808	21.76631165	1.0
73	0	-444.2770081	-29.83799934	-11.87469006	-7.686207771	26.69230652	1.0
74	0	-444.2770081	-29.83799934	-0.3588047028	-12.12918854	27.05257225	1.0
75	0	-444.2770081	-29.83799934	8.886012077	-10.60268116	24.75492859	1.0
[RightToeBase]
72	0	-87.28699493	107.1060028	-3.280112028	2.733350084e-05	2.358889105e-06	1.0
73	0	-87.28699493	107.1060028	-11.938941	-0.3517850935	-1.833860159	1.0
74	0	-87.28699493	107.1060028	-16.16308403	-0.1238100827	-0.5257630348	1.0
75	0	-87.28699493	107.1060028	-17.397295	0.9820898175	3.60340023	1.0
[EndOfFile]
